<svg width="674" height="766" viewBox="0 0 674 766" fill="none" xmlns="http://www.w3.org/2000/svg">
<rect width="674" height="766" rx="50" fill="#FF842B" style="fill:#FF842B;fill:color(display-p3 1.0000 0.5167 0.1667);fill-opacity:1;"/>
<g clip-path="url(#clip0_60_45)">
<path fill-rule="evenodd" clip-rule="evenodd" d="M432.951 84.996C406.85 89.145 382.348 114.415 368.956 151C366.583 157.48 365.804 158.617 363.227 159.36C355.413 161.612 343.703 174.582 340.832 184.168C339.345 189.128 341.015 192.93 345.349 194.454C349.453 195.897 352.835 193.537 356.779 186.479C358.616 183.191 360.927 179.678 361.914 178.674C363.641 176.915 363.734 177.298 364.421 189.042C366.748 228.824 377.329 257.903 395.025 273.149L400.12 277.539L396.127 288.403C393.93 294.378 391.766 299.625 391.317 300.064C390.867 300.502 383.525 303.401 375 306.505C360.337 311.845 341.774 321.625 326.32 332.152C324.021 333.719 321.919 335 321.649 335C321.38 335 320.849 333.589 320.47 331.864C319.437 327.158 312.317 320.569 306.751 319.168C303.381 318.319 276.607 318 208.739 318C103.95 318 108.192 317.725 101.67 324.944C99.716 327.106 97.619 330.591 97.01 332.688C96.229 335.376 95.99 360.287 96.201 417.164L96.5 497.829L99.513 502.164C101.275 504.699 104.375 507.435 106.975 508.75L111.424 511H167.207H222.99L225.077 515.44C229.352 524.535 241.349 532.873 256.002 536.933C267.974 540.251 281.568 541.27 304 540.53C327.513 539.756 330.94 540.251 363.5 549.127C384.682 554.902 431.425 569.12 440.68 572.604C454.274 577.721 470.826 576.488 482.442 569.493C485.571 567.608 496.725 558.064 507.228 548.283C517.731 538.503 531.883 525.507 538.676 519.404L551.028 508.308L559.236 510.686C563.751 511.993 570.332 513.149 573.862 513.253C580.239 513.442 580.302 513.417 584.047 509.197C591.862 500.391 597.806 476.741 603.45 432C604.803 421.275 606.267 408.225 606.705 403C607.266 396.3 607.651 408.532 608.014 444.5C608.45 487.813 608.53 483.215 608.544 414C608.554 369.175 608.309 341.95 608 353.5C607.691 365.05 607.34 373.47 607.219 372.21C606.942 369.312 603.802 363.283 600.805 359.893C592.962 351.022 551.117 324.206 510.5 302.021C501.15 296.914 493.32 292.578 493.099 292.384C492.879 292.19 490.97 286.12 488.858 278.894L485.018 265.756L488.837 261.128C494.23 254.593 498.238 248.486 501.881 241.25C503.612 237.813 505.427 235 505.913 235C506.399 235 510.194 231.828 514.345 227.951C524.208 218.74 528.009 211.53 527.978 202.09C527.963 197.683 527.296 194.045 525.963 191.107C524.125 187.056 524.045 185.771 524.943 174.607C526.623 153.707 523.972 136.071 516.961 121.5C508.396 103.7 493.588 91.925 473 86.544C465.442 84.568 441.47 83.642 432.951 84.996ZM432.105 100.515C423.276 103 416.967 106.989 408.442 115.477C400.54 123.344 394.684 131.35 389.267 141.691C386.289 147.376 386.474 148.531 390.137 147.138C391.465 146.633 397.04 145.447 402.526 144.501C431.94 139.432 460.582 150.969 478.015 174.908L482.452 181H495.601H508.75L509.375 177.875C510.503 172.235 510.029 152.326 508.588 144.838C504.314 122.626 492.653 108.829 472.749 102.437C462.221 99.056 440.876 98.047 432.105 100.515ZM400.792 160.219L396.083 161.201L402.206 164.261C405.574 165.944 412.418 170.397 417.415 174.157L426.5 180.994L444.25 180.997C455.153 180.999 462 180.623 462 180.022C462 178.27 448.654 167.967 442.5 164.967C439.2 163.359 433.818 161.359 430.54 160.522C423.889 158.824 408.241 158.664 400.792 160.219ZM379.339 185.777C381.151 221.591 388.719 245.074 402.936 259C412.685 268.548 418.296 270.5 436 270.5C449.431 270.5 449.539 270.482 457 266.913C469.89 260.748 480.275 249.483 488.821 232.397C491.953 226.136 493.567 224.008 495.923 223.032C500.094 221.304 509.205 212.303 511.29 207.849C513.144 203.891 513.457 200.27 512.129 198.174C511.46 197.119 501.95 196.73 465.541 196.266L419.793 195.684L414.647 191.27C403.397 181.622 391.021 174.667 382.75 173.344L378.676 172.693L379.339 185.777ZM468.319 278.632C458.453 285.51 427.457 288.95 415.769 284.465C414.715 284.06 413.169 286.99 409.837 295.709L405.33 307.5L407.053 322C408 329.975 409.481 339.425 410.342 343C412.264 350.972 418.757 374.097 419.187 374.502C419.359 374.664 423.89 367.077 429.255 357.642C438.006 342.254 440.36 338.995 452.107 325.994C459.31 318.022 468.07 308.313 471.573 304.419L477.943 297.337L475.141 287.475C473.6 282.051 471.925 277.5 471.419 277.362C470.914 277.224 469.518 277.796 468.319 278.632ZM473.242 325.728L457.264 343.475L471.261 350.775C478.96 354.79 485.424 357.909 485.627 357.706C485.83 357.504 491.353 348.838 497.901 338.449L509.806 319.56L507.153 317.968C505.694 317.092 501.062 314.487 496.86 312.178L489.22 307.981L473.242 325.728ZM381 320.902C375.775 322.808 371.344 324.478 371.154 324.613C370.964 324.747 372.089 330.912 373.654 338.312L376.5 351.766L384.803 344.633L393.105 337.5L392.44 329.652C392.074 325.335 391.488 320.821 391.137 319.62L390.5 317.436L381 320.902ZM513.405 341.707C508.13 349.843 501.268 360.426 498.157 365.225C492.422 374.071 489.589 376.272 485.5 375.062C484.4 374.736 475.304 370.32 465.287 365.248L447.073 356.026L443.159 362.763C441.006 366.468 435.559 376.025 431.055 384C421.975 400.074 419.716 403 416.381 403C411.011 403 409.344 399.727 403.395 377.5C400.304 365.95 397.478 356.176 397.116 355.779C396.755 355.383 393.093 358.01 388.979 361.617C377.469 371.711 374.057 374 370.524 374C364.709 374 363.436 371.361 359.901 351.984C358.147 342.368 356.358 334.104 355.927 333.621C355.103 332.698 351.725 334.593 333.25 346.342L322 353.496V412.669V471.841L324.75 472.395C334.635 474.387 447.536 493 449.73 493C451.743 493 453.893 491.48 458.03 487.133C467.37 477.317 480.173 450.176 492.998 413C497.845 398.949 499.84 396 504.5 396C508.137 396 512 399.476 512 402.749C512 405.251 503.66 429.462 496.929 446.5C493.346 455.569 492.471 458.78 493.344 459.648C495.89 462.177 524.332 478.6 537.294 485.026C550.144 491.397 562.713 496.212 569.292 497.284C572.745 497.846 573.815 496.021 577.409 483.439C581.981 467.431 586.64 436.446 590.53 396.162C592.946 371.146 593.108 371.45 568.688 355.149C556.594 347.075 539.607 336.498 527.748 329.655L522.996 326.913L513.405 341.707ZM96.477 415C96.477 459.825 96.6 478.163 96.75 455.75C96.9 433.338 96.9 396.663 96.75 374.25C96.6 351.838 96.477 370.175 96.477 415ZM112.2 335.2C111.287 336.113 111 355.121 111 414.643V492.887L113.223 494.443C115.121 495.773 120.08 496 147.223 496H179V415V334H146.2C122.022 334 113.085 334.315 112.2 335.2ZM195 415V496H208.5H222V415V334H208.5H195V415ZM238 415V496H250.286H262.571V490.704C262.571 483.567 266.377 477.035 272.692 473.335C277.222 470.68 277.668 470.622 291.665 470.855L306 471.095V403.747C306 352.699 305.71 336.11 304.8 335.2C303.915 334.315 294.978 334 270.8 334H238V415ZM408.5 410.155C404.868 412.141 404 414.237 404 421.017C404 426.659 404.346 427.977 406.314 429.826C409.589 432.902 414.306 432.698 416.927 429.365C418.535 427.322 419 425.291 419 420.32C419 414.847 418.641 413.55 416.545 411.455C413.892 408.801 411.64 408.437 408.5 410.155ZM403.734 441.995C401.735 443.567 401.053 445.239 400.514 449.88C399.661 457.229 401.5 461.512 405.924 462.483C412.083 463.836 416 459.268 416 450.732C416 445.883 415.589 444.499 413.545 442.455C410.572 439.481 407.135 439.32 403.734 441.995ZM482.494 478.246C475.48 491.273 466.375 502.199 459.61 505.705C452.48 509.401 452.343 509.387 384 498.027C323.158 487.915 317.167 487.091 299.762 486.438C279.607 485.682 278 485.987 278 490.566C278 495.178 281.058 496 298.223 496C312.667 496 314.169 496.169 316 498C318.779 500.779 318.632 506.057 315.699 508.813C313.437 510.938 312.764 510.979 276.449 511.237L239.5 511.5L242.388 514.243C246.029 517.7 254.003 521.498 262.176 523.667C267.296 525.026 274.116 525.39 298 525.579C326.913 525.808 327.781 525.875 341.626 528.93C364.256 533.924 401.79 544.622 435.44 555.669C451.544 560.956 452.784 561.21 460.546 560.802C466.916 560.468 469.6 559.838 472.753 557.937C476.068 555.938 505.483 529.414 529.807 506.49L535.124 501.479L524.812 496.108C519.14 493.154 509.325 487.583 503 483.729C496.675 479.874 490.11 475.881 488.411 474.856L485.322 472.992L482.494 478.246Z" fill="white" style="fill:white;fill:white;fill-opacity:1;"/>
</g>
<defs>
<clipPath id="clip0_60_45">
<rect width="512" height="512" fill="white" style="fill:white;fill:white;fill-opacity:1;" transform="translate(96 74)"/>
</clipPath>
</defs>
</svg>
