<svg width="60" height="60" viewBox="0 0 60 60" fill="none" xmlns="http://www.w3.org/2000/svg">
<g clip-path="url(#clip0_59_41)">
<path fill-rule="evenodd" clip-rule="evenodd" d="M5.625 14.0625C5.625 15.6094 4.78125 16.875 3.75 16.875C1.05187 16.875 1.43625 22.0106 4.21875 23.1337C5.61937 23.6981 5.24062 24.1387 3.28125 24.2269C1.4775 24.3075 0 25.1775 0 26.1562C0 27.1369 1.4775 28.7981 3.28125 29.85C6.40688 31.6706 6.40688 31.7644 3.28125 31.8187C1.4775 31.8487 0 32.7187 0 33.75C0 34.7812 1.26563 35.625 2.8125 35.625C4.37438 35.625 5.625 37.2919 5.625 39.375C5.625 41.4581 6.87562 43.125 8.4375 43.125C9.98437 43.125 11.25 43.9125 11.25 44.8744C11.25 48.2887 18.9525 49.1475 22.3125 46.1062C26.5612 42.2625 39.0638 42.2625 43.3125 46.1062C46.6725 49.1475 54.375 48.2887 54.375 44.8744C54.375 43.9125 55.6406 43.125 57.1875 43.125C58.7925 43.125 60.0881 41.3156 60.2063 38.9062C60.3188 36.585 60.6469 31.8356 60.9356 28.35C61.2244 24.8644 60.8606 22.9819 60.1294 24.1669C59.2538 25.5825 56.1581 23.7375 51.1069 18.7856L43.4194 11.25H24.5231C8.97563 11.25 5.625 11.7488 5.625 14.0625ZM13.9912 18.6356C14.5894 19.6031 13.5844 21.2644 11.7581 22.3275C8.88187 24.0019 9.1125 24.2681 13.4831 24.3187C20.7544 24.3994 21.9225 27.96 15.1237 29.3194C11.1506 30.1144 9.375 31.56 9.375 33.9994C9.375 37.0631 9.87375 37.2206 13.125 35.19C16.1119 33.3244 17.6325 33.3206 20.5988 35.1731C22.6481 36.4537 28.1437 37.5 32.8125 37.5C37.4813 37.5 42.9769 36.4537 45.0262 35.1731C48.0056 33.3131 49.5281 33.3337 52.6444 35.28C56.1956 37.4981 56.4844 37.3312 55.9256 33.3881C55.4137 29.775 53.9212 28.9087 46.875 28.125C39.3394 27.2869 38.3738 26.6362 37.845 22.0312C37.2656 16.9969 36.9638 16.875 25.0781 16.875C17.97 16.875 13.3556 17.6081 13.9912 18.6356ZM43.125 20.625C43.125 22.7456 44.3756 24.375 46.0031 24.375C48.3 24.375 48.4762 23.6175 46.875 20.625C45.7706 18.5625 44.475 16.875 43.9969 16.875C43.5169 16.875 43.125 18.5625 43.125 20.625ZM0 26.25C0 27.6244 0.5625 28.1869 1.25062 27.5006C1.93687 26.8125 1.93687 25.6875 1.25062 24.9994C0.5625 24.3131 0 24.8756 0 26.25ZM0 33.75C0 35.1244 0.5625 35.6869 1.25062 35.0006C1.93687 34.3125 1.93687 33.1875 1.25062 32.4994C0.5625 31.8131 0 32.3756 0 33.75ZM15 41.25C15 42.2812 15.8437 43.125 16.875 43.125C17.9063 43.125 18.75 42.2812 18.75 41.25C18.75 40.2187 17.9063 39.375 16.875 39.375C15.8437 39.375 15 40.2187 15 41.25ZM46.875 41.25C46.875 42.2812 47.7187 43.125 48.75 43.125C49.7813 43.125 50.625 42.2812 50.625 41.25C50.625 40.2187 49.7813 39.375 48.75 39.375C47.7187 39.375 46.875 40.2187 46.875 41.25Z" fill="white" style="fill:white;fill:white;fill-opacity:1;"/>
</g>
<defs>
<clipPath id="clip0_59_41">
<rect width="60" height="60" fill="white" style="fill:white;fill:white;fill-opacity:1;"/>
</clipPath>
</defs>
</svg>
