<svg width="215" height="36" viewBox="0 0 215 36" fill="none" xmlns="http://www.w3.org/2000/svg">
<path d="M5.592 12.44V15.848H11.088V19.016H5.592V22.712H11.808V26H1.488V9.152H11.808V12.44H5.592ZM29.5444 26H25.4404L18.5764 15.608V26H14.4724V9.152H18.5764L25.4404 19.592V9.152H29.5444V26ZM44.6393 9.152V12.44H40.1753V26H36.0713V12.44H31.6073V9.152H44.6393ZM55.2909 26L51.7869 19.64H50.8029V26H46.6989V9.152H53.5869C54.9149 9.152 56.0429 9.384 56.9709 9.848C57.9149 10.312 58.6189 10.952 59.0829 11.768C59.5469 12.568 59.7789 13.464 59.7789 14.456C59.7789 15.576 59.4589 16.576 58.8189 17.456C58.1949 18.336 57.2669 18.96 56.0349 19.328L59.9229 26H55.2909ZM50.8029 16.736H53.3469C54.0989 16.736 54.6589 16.552 55.0269 16.184C55.4109 15.816 55.6029 15.296 55.6029 14.624C55.6029 13.984 55.4109 13.48 55.0269 13.112C54.6589 12.744 54.0989 12.56 53.3469 12.56H50.8029V16.736ZM66.4592 12.44V15.848H71.9552V19.016H66.4592V22.712H72.6752V26H62.3552V9.152H72.6752V12.44H66.4592ZM86.5236 14.48C86.2196 13.92 85.7796 13.496 85.2036 13.208C84.6436 12.904 83.9796 12.752 83.2116 12.752C81.8836 12.752 80.8196 13.192 80.0196 14.072C79.2196 14.936 78.8196 16.096 78.8196 17.552C78.8196 19.104 79.2356 20.32 80.0676 21.2C80.9156 22.064 82.0756 22.496 83.5476 22.496C84.5556 22.496 85.4036 22.24 86.0916 21.728C86.7956 21.216 87.3076 20.48 87.6276 19.52H82.4196V16.496H91.3476V20.312C91.0436 21.336 90.5236 22.288 89.7876 23.168C89.0676 24.048 88.1476 24.76 87.0276 25.304C85.9076 25.848 84.6436 26.12 83.2356 26.12C81.5716 26.12 80.0836 25.76 78.7716 25.04C77.4756 24.304 76.4596 23.288 75.7236 21.992C75.0036 20.696 74.6436 19.216 74.6436 17.552C74.6436 15.888 75.0036 14.408 75.7236 13.112C76.4596 11.8 77.4756 10.784 78.7716 10.064C80.0676 9.328 81.5476 8.96 83.2116 8.96C85.2276 8.96 86.9236 9.448 88.2996 10.424C89.6916 11.4 90.6116 12.752 91.0596 14.48H86.5236ZM104.109 23.024H97.8208L96.8128 26H92.5168L98.6128 9.152H103.365L109.461 26H105.117L104.109 23.024ZM103.053 19.856L100.965 13.688L98.9008 19.856H103.053Z" fill="white" style="fill:white;fill:white;fill-opacity:1;"/>
<path d="M135.482 9.152V26H131.378V15.896L127.61 26H124.298L120.506 15.872V26H116.402V9.152H121.25L125.978 20.816L130.658 9.152H135.482ZM148.921 23.024H142.633L141.625 26H137.329L143.425 9.152H148.177L154.273 26H149.929L148.921 23.024ZM147.865 19.856L145.777 13.688L143.713 19.856H147.865ZM160.233 9.152V26H156.129V9.152H160.233ZM169.303 26.168C168.071 26.168 166.967 25.968 165.991 25.568C165.015 25.168 164.231 24.576 163.639 23.792C163.063 23.008 162.759 22.064 162.727 20.96H167.095C167.159 21.584 167.375 22.064 167.743 22.4C168.111 22.72 168.591 22.88 169.183 22.88C169.791 22.88 170.271 22.744 170.623 22.472C170.975 22.184 171.151 21.792 171.151 21.296C171.151 20.88 171.007 20.536 170.719 20.264C170.447 19.992 170.103 19.768 169.687 19.592C169.287 19.416 168.711 19.216 167.959 18.992C166.871 18.656 165.983 18.32 165.295 17.984C164.607 17.648 164.015 17.152 163.519 16.496C163.023 15.84 162.775 14.984 162.775 13.928C162.775 12.36 163.343 11.136 164.479 10.256C165.615 9.36 167.095 8.912 168.919 8.912C170.775 8.912 172.271 9.36 173.407 10.256C174.543 11.136 175.151 12.368 175.231 13.952H170.791C170.759 13.408 170.559 12.984 170.191 12.68C169.823 12.36 169.351 12.2 168.775 12.2C168.279 12.2 167.879 12.336 167.575 12.608C167.271 12.864 167.119 13.24 167.119 13.736C167.119 14.28 167.375 14.704 167.887 15.008C168.399 15.312 169.199 15.64 170.287 15.992C171.375 16.36 172.255 16.712 172.927 17.048C173.615 17.384 174.207 17.872 174.703 18.512C175.199 19.152 175.447 19.976 175.447 20.984C175.447 21.944 175.199 22.816 174.703 23.6C174.223 24.384 173.519 25.008 172.591 25.472C171.663 25.936 170.567 26.168 169.303 26.168Z" fill="#FF842B" style="fill:#FF842B;fill:color(display-p3 1.0000 0.5167 0.1667);fill-opacity:1;"/>
<g clip-path="url(#clip0_20_4)">
<path fill-rule="evenodd" clip-rule="evenodd" d="M186 9.5C186 10.325 185.55 11 185 11C183.561 11 183.766 13.739 185.25 14.338C185.997 14.639 185.795 14.874 184.75 14.921C183.788 14.964 183 15.428 183 15.95C183 16.473 183.788 17.359 184.75 17.92C186.417 18.891 186.417 18.941 184.75 18.97C183.788 18.986 183 19.45 183 20C183 20.55 183.675 21 184.5 21C185.333 21 186 21.889 186 23C186 24.111 186.667 25 187.5 25C188.325 25 189 25.42 189 25.933C189 27.754 193.108 28.212 194.9 26.59C197.166 24.54 203.834 24.54 206.1 26.59C207.892 28.212 212 27.754 212 25.933C212 25.42 212.675 25 213.5 25C214.356 25 215.047 24.035 215.11 22.75C215.17 21.512 215.345 18.979 215.499 17.12C215.653 15.261 215.459 14.257 215.069 14.889C214.602 15.644 212.951 14.66 210.257 12.019L206.157 8H196.079C187.787 8 186 8.266 186 9.5ZM190.462 11.939C190.781 12.455 190.245 13.341 189.271 13.908C187.737 14.801 187.86 14.943 190.191 14.97C194.069 15.013 194.692 16.912 191.066 17.637C188.947 18.061 188 18.832 188 20.133C188 21.767 188.266 21.851 190 20.768C191.593 19.773 192.404 19.771 193.986 20.759C195.079 21.442 198.01 22 200.5 22C202.99 22 205.921 21.442 207.014 20.759C208.603 19.767 209.415 19.778 211.077 20.816C212.971 21.999 213.125 21.91 212.827 19.807C212.554 17.88 211.758 17.418 208 17C203.981 16.553 203.466 16.206 203.184 13.75C202.875 11.065 202.714 11 196.375 11C192.584 11 190.123 11.391 190.462 11.939ZM206 13C206 14.131 206.667 15 207.535 15C208.76 15 208.854 14.596 208 13C207.411 11.9 206.72 11 206.465 11C206.209 11 206 11.9 206 13ZM183 16C183 16.733 183.3 17.033 183.667 16.667C184.033 16.3 184.033 15.7 183.667 15.333C183.3 14.967 183 15.267 183 16ZM183 20C183 20.733 183.3 21.033 183.667 20.667C184.033 20.3 184.033 19.7 183.667 19.333C183.3 18.967 183 19.267 183 20ZM191 24C191 24.55 191.45 25 192 25C192.55 25 193 24.55 193 24C193 23.45 192.55 23 192 23C191.45 23 191 23.45 191 24ZM208 24C208 24.55 208.45 25 209 25C209.55 25 210 24.55 210 24C210 23.45 209.55 23 209 23C208.45 23 208 23.45 208 24Z" fill="white" style="fill:white;fill:white;fill-opacity:1;"/>
</g>
<defs>
<clipPath id="clip0_20_4">
<rect width="32" height="32" fill="white" style="fill:white;fill:white;fill-opacity:1;" transform="translate(183 2)"/>
</clipPath>
</defs>
</svg>
